<mxfile host="app.diagrams.net" agent="Mozilla/5.0 (Windows NT 10.0; Win64; x64) AppleWebKit/537.36 (KHTML, like Gecko) Chrome/130.0.0.0 Safari/537.36 Edg/130.0.0.0" version="24.8.6">
  <diagram name="第 1 页" id="FKUo_mnBYDhla0QVIUHq">
    <mxGraphModel dx="1046" dy="563" grid="1" gridSize="10" guides="1" tooltips="1" connect="1" arrows="1" fold="1" page="1" pageScale="1" pageWidth="827" pageHeight="1169" math="0" shadow="0">
      <root>
        <mxCell id="0" />
        <mxCell id="1" parent="0" />
        <mxCell id="e2RUxmq5neUqRyLUQRZd-10" style="edgeStyle=orthogonalEdgeStyle;rounded=0;orthogonalLoop=1;jettySize=auto;html=1;exitX=0.5;exitY=0;exitDx=0;exitDy=0;entryX=0.5;entryY=0;entryDx=0;entryDy=0;" parent="1" source="e2RUxmq5neUqRyLUQRZd-1" target="e2RUxmq5neUqRyLUQRZd-9" edge="1">
          <mxGeometry relative="1" as="geometry" />
        </mxCell>
        <mxCell id="e2RUxmq5neUqRyLUQRZd-51" style="edgeStyle=orthogonalEdgeStyle;rounded=0;orthogonalLoop=1;jettySize=auto;html=1;exitX=0.5;exitY=1;exitDx=0;exitDy=0;entryX=0.5;entryY=0;entryDx=0;entryDy=0;" parent="1" source="e2RUxmq5neUqRyLUQRZd-1" target="e2RUxmq5neUqRyLUQRZd-33" edge="1">
          <mxGeometry relative="1" as="geometry" />
        </mxCell>
        <mxCell id="e2RUxmq5neUqRyLUQRZd-1" value="" style="rounded=0;whiteSpace=wrap;html=1;" parent="1" vertex="1">
          <mxGeometry x="208" y="400" width="434" height="140" as="geometry" />
        </mxCell>
        <mxCell id="e2RUxmq5neUqRyLUQRZd-2" value="Agent In-Game Strategy Decision Tree&amp;nbsp;" style="text;html=1;align=center;verticalAlign=middle;whiteSpace=wrap;rounded=0;" parent="1" vertex="1">
          <mxGeometry x="250" y="10" width="350" height="30" as="geometry" />
        </mxCell>
        <mxCell id="e2RUxmq5neUqRyLUQRZd-3" value="Dice Rolling" style="text;html=1;align=center;verticalAlign=middle;whiteSpace=wrap;rounded=0;" parent="1" vertex="1">
          <mxGeometry x="208" y="400" width="110" height="30" as="geometry" />
        </mxCell>
        <mxCell id="e2RUxmq5neUqRyLUQRZd-5" style="edgeStyle=orthogonalEdgeStyle;rounded=0;orthogonalLoop=1;jettySize=auto;html=1;exitX=0.5;exitY=1;exitDx=0;exitDy=0;entryX=0.5;entryY=0;entryDx=0;entryDy=0;" parent="1" source="e2RUxmq5neUqRyLUQRZd-15" target="e2RUxmq5neUqRyLUQRZd-1" edge="1">
          <mxGeometry relative="1" as="geometry">
            <mxPoint x="425" y="360" as="sourcePoint" />
            <mxPoint x="425" y="390" as="targetPoint" />
          </mxGeometry>
        </mxCell>
        <mxCell id="e2RUxmq5neUqRyLUQRZd-6" value="&lt;b&gt;Greedy&lt;/b&gt;&lt;div&gt;High Threshold&lt;/div&gt;" style="rounded=0;whiteSpace=wrap;html=1;" parent="1" vertex="1">
          <mxGeometry x="220" y="460" width="120" height="60" as="geometry" />
        </mxCell>
        <mxCell id="e2RUxmq5neUqRyLUQRZd-7" value="&lt;b&gt;Balanced&lt;/b&gt;&lt;div&gt;Optimizing Expectations&lt;/div&gt;" style="rounded=0;whiteSpace=wrap;html=1;" parent="1" vertex="1">
          <mxGeometry x="365" y="460" width="120" height="60" as="geometry" />
        </mxCell>
        <mxCell id="e2RUxmq5neUqRyLUQRZd-8" value="&lt;b&gt;Safe&lt;/b&gt;:&lt;div&gt;Low threshold&lt;/div&gt;" style="rounded=0;whiteSpace=wrap;html=1;" parent="1" vertex="1">
          <mxGeometry x="510" y="460" width="120" height="60" as="geometry" />
        </mxCell>
        <mxCell id="e2RUxmq5neUqRyLUQRZd-11" style="edgeStyle=orthogonalEdgeStyle;rounded=0;orthogonalLoop=1;jettySize=auto;html=1;exitX=0.25;exitY=1;exitDx=0;exitDy=0;entryX=0.5;entryY=0;entryDx=0;entryDy=0;" parent="1" source="e2RUxmq5neUqRyLUQRZd-9" target="e2RUxmq5neUqRyLUQRZd-6" edge="1">
          <mxGeometry relative="1" as="geometry">
            <Array as="points">
              <mxPoint x="395" y="450" />
              <mxPoint x="280" y="450" />
            </Array>
          </mxGeometry>
        </mxCell>
        <mxCell id="e2RUxmq5neUqRyLUQRZd-12" style="edgeStyle=orthogonalEdgeStyle;rounded=0;orthogonalLoop=1;jettySize=auto;html=1;exitX=0.5;exitY=1;exitDx=0;exitDy=0;entryX=0.5;entryY=0;entryDx=0;entryDy=0;" parent="1" source="e2RUxmq5neUqRyLUQRZd-9" target="e2RUxmq5neUqRyLUQRZd-7" edge="1">
          <mxGeometry relative="1" as="geometry" />
        </mxCell>
        <mxCell id="e2RUxmq5neUqRyLUQRZd-13" style="edgeStyle=orthogonalEdgeStyle;rounded=0;orthogonalLoop=1;jettySize=auto;html=1;exitX=0.75;exitY=1;exitDx=0;exitDy=0;entryX=0.5;entryY=0;entryDx=0;entryDy=0;" parent="1" source="e2RUxmq5neUqRyLUQRZd-9" target="e2RUxmq5neUqRyLUQRZd-8" edge="1">
          <mxGeometry relative="1" as="geometry">
            <Array as="points">
              <mxPoint x="455" y="450" />
              <mxPoint x="570" y="450" />
            </Array>
          </mxGeometry>
        </mxCell>
        <mxCell id="e2RUxmq5neUqRyLUQRZd-9" value="Depending on the Role" style="rounded=0;whiteSpace=wrap;html=1;" parent="1" vertex="1">
          <mxGeometry x="365" y="410" width="120" height="30" as="geometry" />
        </mxCell>
        <mxCell id="e2RUxmq5neUqRyLUQRZd-80" style="edgeStyle=orthogonalEdgeStyle;rounded=0;orthogonalLoop=1;jettySize=auto;html=1;exitX=0.5;exitY=1;exitDx=0;exitDy=0;entryX=0.5;entryY=0;entryDx=0;entryDy=0;" parent="1" source="e2RUxmq5neUqRyLUQRZd-14" target="e2RUxmq5neUqRyLUQRZd-79" edge="1">
          <mxGeometry relative="1" as="geometry" />
        </mxCell>
        <mxCell id="e2RUxmq5neUqRyLUQRZd-14" value="Start of Game&lt;div&gt;&lt;div&gt;After Team Forming&lt;/div&gt;&lt;/div&gt;&lt;div&gt;&lt;br&gt;&lt;/div&gt;" style="rounded=0;whiteSpace=wrap;html=1;" parent="1" vertex="1">
          <mxGeometry x="365" y="40" width="120" height="50" as="geometry" />
        </mxCell>
        <mxCell id="e2RUxmq5neUqRyLUQRZd-15" value="" style="rounded=0;whiteSpace=wrap;html=1;" parent="1" vertex="1">
          <mxGeometry x="100" y="230" width="650" height="110" as="geometry" />
        </mxCell>
        <mxCell id="e2RUxmq5neUqRyLUQRZd-16" value="Role Decision" style="text;html=1;align=center;verticalAlign=middle;whiteSpace=wrap;rounded=0;" parent="1" vertex="1">
          <mxGeometry x="115.5" y="230" width="92.5" height="30" as="geometry" />
        </mxCell>
        <mxCell id="e2RUxmq5neUqRyLUQRZd-17" value="&lt;b&gt;Sabotage:&lt;/b&gt;&lt;div&gt;To mess up the team and doom&lt;/div&gt;" style="rounded=0;whiteSpace=wrap;html=1;" parent="1" vertex="1">
          <mxGeometry x="110" y="260" width="110" height="50" as="geometry" />
        </mxCell>
        <mxCell id="e2RUxmq5neUqRyLUQRZd-18" value="&lt;b&gt;Self-Centered:&lt;/b&gt;&lt;div&gt;to Stay as long as possible&lt;/div&gt;" style="rounded=0;whiteSpace=wrap;html=1;" parent="1" vertex="1">
          <mxGeometry x="372" y="260" width="110" height="50" as="geometry" />
        </mxCell>
        <mxCell id="e2RUxmq5neUqRyLUQRZd-19" value="&lt;b&gt;LeiFeng&lt;/b&gt;&lt;br&gt;&lt;div&gt;Team over self&lt;/div&gt;" style="rounded=0;whiteSpace=wrap;html=1;" parent="1" vertex="1">
          <mxGeometry x="630" y="260" width="110" height="50" as="geometry" />
        </mxCell>
        <mxCell id="e2RUxmq5neUqRyLUQRZd-22" value="&lt;b&gt;Payback:&lt;/b&gt;&lt;div&gt;Goes Havoc if sees badguy&lt;b&gt;&amp;nbsp;&lt;/b&gt;&lt;/div&gt;" style="rounded=0;whiteSpace=wrap;html=1;" parent="1" vertex="1">
          <mxGeometry x="200" y="200" width="110" height="50" as="geometry" />
        </mxCell>
        <mxCell id="e2RUxmq5neUqRyLUQRZd-24" value="&lt;b&gt;Citizen:&lt;/b&gt;&lt;div&gt;Does the minimum to survive&lt;/div&gt;" style="rounded=0;whiteSpace=wrap;html=1;" parent="1" vertex="1">
          <mxGeometry x="500" y="260" width="110" height="50" as="geometry" />
        </mxCell>
        <mxCell id="e2RUxmq5neUqRyLUQRZd-26" value="Chaotic" style="text;html=1;align=center;verticalAlign=middle;whiteSpace=wrap;rounded=0;" parent="1" vertex="1">
          <mxGeometry x="130" y="310" width="60" height="30" as="geometry" />
        </mxCell>
        <mxCell id="e2RUxmq5neUqRyLUQRZd-27" value="Lawful" style="text;html=1;align=center;verticalAlign=middle;whiteSpace=wrap;rounded=0;" parent="1" vertex="1">
          <mxGeometry x="655" y="310" width="60" height="30" as="geometry" />
        </mxCell>
        <mxCell id="e2RUxmq5neUqRyLUQRZd-31" style="edgeStyle=orthogonalEdgeStyle;rounded=0;orthogonalLoop=1;jettySize=auto;html=1;exitX=0.5;exitY=1;exitDx=0;exitDy=0;entryX=0.5;entryY=0;entryDx=0;entryDy=0;" parent="1" source="e2RUxmq5neUqRyLUQRZd-29" target="e2RUxmq5neUqRyLUQRZd-15" edge="1">
          <mxGeometry relative="1" as="geometry" />
        </mxCell>
        <mxCell id="e2RUxmq5neUqRyLUQRZd-29" value="Start of new round" style="rounded=0;whiteSpace=wrap;html=1;" parent="1" vertex="1">
          <mxGeometry x="365" y="190" width="120" height="30" as="geometry" />
        </mxCell>
        <mxCell id="e2RUxmq5neUqRyLUQRZd-62" style="edgeStyle=orthogonalEdgeStyle;rounded=0;orthogonalLoop=1;jettySize=auto;html=1;exitX=0.5;exitY=1;exitDx=0;exitDy=0;entryX=0.5;entryY=0;entryDx=0;entryDy=0;" parent="1" source="e2RUxmq5neUqRyLUQRZd-33" target="e2RUxmq5neUqRyLUQRZd-52" edge="1">
          <mxGeometry relative="1" as="geometry" />
        </mxCell>
        <mxCell id="e2RUxmq5neUqRyLUQRZd-33" value="" style="rounded=0;whiteSpace=wrap;html=1;" parent="1" vertex="1">
          <mxGeometry x="97" y="570" width="650" height="110" as="geometry" />
        </mxCell>
        <mxCell id="e2RUxmq5neUqRyLUQRZd-36" value="Contribution" style="text;html=1;align=center;verticalAlign=middle;whiteSpace=wrap;rounded=0;" parent="1" vertex="1">
          <mxGeometry x="110" y="570" width="60" height="30" as="geometry" />
        </mxCell>
        <mxCell id="e2RUxmq5neUqRyLUQRZd-47" style="edgeStyle=orthogonalEdgeStyle;rounded=0;orthogonalLoop=1;jettySize=auto;html=1;exitX=0.5;exitY=1;exitDx=0;exitDy=0;entryX=0.5;entryY=0;entryDx=0;entryDy=0;" parent="1" source="e2RUxmq5neUqRyLUQRZd-38" target="e2RUxmq5neUqRyLUQRZd-29" edge="1">
          <mxGeometry relative="1" as="geometry" />
        </mxCell>
        <mxCell id="e2RUxmq5neUqRyLUQRZd-38" value="How much to contribute, how much to allocate and to whom, audit cost, lost audit consequences&amp;nbsp;" style="rounded=0;whiteSpace=wrap;html=1;" parent="1" vertex="1">
          <mxGeometry x="100" y="120" width="650" height="60" as="geometry" />
        </mxCell>
        <mxCell id="e2RUxmq5neUqRyLUQRZd-40" value="&lt;b&gt;Greedy&lt;/b&gt;&lt;div&gt;Contribute Nothing&lt;/div&gt;" style="rounded=0;whiteSpace=wrap;html=1;" parent="1" vertex="1">
          <mxGeometry x="115.5" y="600" width="120" height="60" as="geometry" />
        </mxCell>
        <mxCell id="e2RUxmq5neUqRyLUQRZd-41" value="&lt;b&gt;Lawful&lt;/b&gt;&lt;div&gt;Contribute only what the rule says&lt;/div&gt;" style="rounded=0;whiteSpace=wrap;html=1;" parent="1" vertex="1">
          <mxGeometry x="367" y="600" width="120" height="60" as="geometry" />
        </mxCell>
        <mxCell id="e2RUxmq5neUqRyLUQRZd-42" value="&lt;b&gt;LeiFeng&lt;/b&gt;&lt;br&gt;&lt;div&gt;Contributing Everything&lt;/div&gt;" style="rounded=0;whiteSpace=wrap;html=1;" parent="1" vertex="1">
          <mxGeometry x="620" y="600" width="110" height="60" as="geometry" />
        </mxCell>
        <mxCell id="e2RUxmq5neUqRyLUQRZd-43" value="&lt;b&gt;Nice Guy&lt;/b&gt;&lt;div&gt;Contribute more if I feel rich&lt;/div&gt;" style="rounded=0;whiteSpace=wrap;html=1;" parent="1" vertex="1">
          <mxGeometry x="495" y="600" width="120" height="60" as="geometry" />
        </mxCell>
        <mxCell id="e2RUxmq5neUqRyLUQRZd-44" value="&lt;b&gt;Play Poor&lt;/b&gt;&lt;div&gt;have excuses to contrubute less&lt;/div&gt;" style="rounded=0;whiteSpace=wrap;html=1;" parent="1" vertex="1">
          <mxGeometry x="241.5" y="600" width="120" height="60" as="geometry" />
        </mxCell>
        <mxCell id="e2RUxmq5neUqRyLUQRZd-45" value="&lt;b&gt;Begger:&lt;/b&gt;&lt;div&gt;Extremely Greedy&lt;/div&gt;&lt;div&gt;Go bust so no contribution,&lt;/div&gt;&lt;div&gt;takes alot&lt;/div&gt;" style="rounded=0;whiteSpace=wrap;html=1;" parent="1" vertex="1">
          <mxGeometry x="235.5" y="250" width="120" height="70" as="geometry" />
        </mxCell>
        <mxCell id="e2RUxmq5neUqRyLUQRZd-48" value="Deciding team strategies" style="text;html=1;align=center;verticalAlign=middle;whiteSpace=wrap;rounded=0;" parent="1" vertex="1">
          <mxGeometry x="100" y="110" width="160" height="30" as="geometry" />
        </mxCell>
        <mxCell id="e2RUxmq5neUqRyLUQRZd-65" style="edgeStyle=orthogonalEdgeStyle;rounded=0;orthogonalLoop=1;jettySize=auto;html=1;exitX=0.5;exitY=1;exitDx=0;exitDy=0;entryX=0.5;entryY=0;entryDx=0;entryDy=0;" parent="1" source="e2RUxmq5neUqRyLUQRZd-52" target="e2RUxmq5neUqRyLUQRZd-63" edge="1">
          <mxGeometry relative="1" as="geometry" />
        </mxCell>
        <mxCell id="e2RUxmq5neUqRyLUQRZd-52" value="" style="rounded=0;whiteSpace=wrap;html=1;" parent="1" vertex="1">
          <mxGeometry x="97" y="710" width="650" height="110" as="geometry" />
        </mxCell>
        <mxCell id="e2RUxmq5neUqRyLUQRZd-53" value="Taking Resources" style="text;html=1;align=center;verticalAlign=middle;whiteSpace=wrap;rounded=0;" parent="1" vertex="1">
          <mxGeometry x="97" y="710" width="113" height="30" as="geometry" />
        </mxCell>
        <mxCell id="e2RUxmq5neUqRyLUQRZd-54" value="Evil" style="text;html=1;align=center;verticalAlign=middle;whiteSpace=wrap;rounded=0;" parent="1" vertex="1">
          <mxGeometry x="145.5" y="656" width="60" height="30" as="geometry" />
        </mxCell>
        <mxCell id="e2RUxmq5neUqRyLUQRZd-55" value="Good" style="text;html=1;align=center;verticalAlign=middle;whiteSpace=wrap;rounded=0;" parent="1" vertex="1">
          <mxGeometry x="642" y="656" width="60" height="30" as="geometry" />
        </mxCell>
        <mxCell id="e2RUxmq5neUqRyLUQRZd-56" value="&lt;b&gt;Greedy&lt;/b&gt;&lt;div&gt;Takes as much as possible&lt;/div&gt;" style="rounded=0;whiteSpace=wrap;html=1;" parent="1" vertex="1">
          <mxGeometry x="115.5" y="740" width="120" height="60" as="geometry" />
        </mxCell>
        <mxCell id="e2RUxmq5neUqRyLUQRZd-57" value="&lt;b&gt;Neutral&lt;/b&gt;&lt;br&gt;&lt;div&gt;Take exactly what you need to live&lt;/div&gt;" style="rounded=0;whiteSpace=wrap;html=1;" parent="1" vertex="1">
          <mxGeometry x="368" y="740" width="120" height="60" as="geometry" />
        </mxCell>
        <mxCell id="e2RUxmq5neUqRyLUQRZd-58" value="&lt;b&gt;Sneaky&lt;/b&gt;&lt;div&gt;take a bit more than you need&lt;/div&gt;" style="rounded=0;whiteSpace=wrap;html=1;" parent="1" vertex="1">
          <mxGeometry x="241.5" y="740" width="120" height="60" as="geometry" />
        </mxCell>
        <mxCell id="e2RUxmq5neUqRyLUQRZd-59" value="&lt;b&gt;LeiFeng&lt;/b&gt;&lt;br&gt;&lt;div&gt;Do not take if you are too far away from T&lt;/div&gt;" style="rounded=0;whiteSpace=wrap;html=1;" parent="1" vertex="1">
          <mxGeometry x="624" y="740" width="110" height="60" as="geometry" />
        </mxCell>
        <mxCell id="e2RUxmq5neUqRyLUQRZd-60" value="&lt;b&gt;Lawful&lt;/b&gt;&lt;div&gt;abide by the rules&lt;/div&gt;" style="rounded=0;whiteSpace=wrap;html=1;" parent="1" vertex="1">
          <mxGeometry x="495" y="740" width="120" height="60" as="geometry" />
        </mxCell>
        <mxCell id="e2RUxmq5neUqRyLUQRZd-61" value="&lt;b&gt;Leech:&lt;/b&gt;&lt;div&gt;secretly leeching small amounts&lt;/div&gt;" style="rounded=0;whiteSpace=wrap;html=1;" parent="1" vertex="1">
          <mxGeometry x="314" y="320" width="100" height="50" as="geometry" />
        </mxCell>
        <mxCell id="e2RUxmq5neUqRyLUQRZd-84" style="edgeStyle=orthogonalEdgeStyle;rounded=0;orthogonalLoop=1;jettySize=auto;html=1;exitX=0.5;exitY=1;exitDx=0;exitDy=0;entryX=0.5;entryY=0;entryDx=0;entryDy=0;" parent="1" source="e2RUxmq5neUqRyLUQRZd-63" target="e2RUxmq5neUqRyLUQRZd-78" edge="1">
          <mxGeometry relative="1" as="geometry" />
        </mxCell>
        <mxCell id="e2RUxmq5neUqRyLUQRZd-63" value="" style="rounded=0;whiteSpace=wrap;html=1;" parent="1" vertex="1">
          <mxGeometry x="93.5" y="850" width="656.5" height="110" as="geometry" />
        </mxCell>
        <mxCell id="e2RUxmq5neUqRyLUQRZd-64" value="Audition" style="text;html=1;align=center;verticalAlign=middle;whiteSpace=wrap;rounded=0;" parent="1" vertex="1">
          <mxGeometry x="93.5" y="850" width="60" height="30" as="geometry" />
        </mxCell>
        <mxCell id="e2RUxmq5neUqRyLUQRZd-66" value="&lt;b&gt;terrorist:&lt;/b&gt;&lt;div&gt;Auditing everyone here, say no to everyone&lt;/div&gt;" style="rounded=0;whiteSpace=wrap;html=1;" parent="1" vertex="1">
          <mxGeometry x="115.5" y="880" width="120" height="60" as="geometry" />
        </mxCell>
        <mxCell id="e2RUxmq5neUqRyLUQRZd-67" value="&lt;b&gt;Judge&lt;/b&gt;:&lt;div&gt;Audit and Judge fair based on thier actions&lt;/div&gt;" style="rounded=0;whiteSpace=wrap;html=1;" parent="1" vertex="1">
          <mxGeometry x="365" y="880" width="120" height="60" as="geometry" />
        </mxCell>
        <mxCell id="e2RUxmq5neUqRyLUQRZd-68" value="&lt;b&gt;ShengMu&lt;/b&gt;:&lt;div&gt;Never Audit and forgive everyone&lt;/div&gt;" style="rounded=0;whiteSpace=wrap;html=1;" parent="1" vertex="1">
          <mxGeometry x="620" y="880" width="120" height="60" as="geometry" />
        </mxCell>
        <mxCell id="e2RUxmq5neUqRyLUQRZd-69" value="&lt;b&gt;Meanie:&lt;/b&gt;&lt;div&gt;Audit the people who started audit&lt;/div&gt;" style="rounded=0;whiteSpace=wrap;html=1;" parent="1" vertex="1">
          <mxGeometry x="244" y="880" width="111.5" height="60" as="geometry" />
        </mxCell>
        <mxCell id="e2RUxmq5neUqRyLUQRZd-70" value="&lt;b&gt;Voter:&lt;/b&gt;&lt;div&gt;Do not start audit but vote fairly&lt;/div&gt;" style="rounded=0;whiteSpace=wrap;html=1;" parent="1" vertex="1">
          <mxGeometry x="495" y="880" width="120" height="60" as="geometry" />
        </mxCell>
        <mxCell id="e2RUxmq5neUqRyLUQRZd-71" value="&lt;b&gt;War Starter&lt;/b&gt;:&lt;div&gt;first one to audit, audit random&lt;br&gt;&lt;div&gt;&lt;br&gt;&lt;/div&gt;&lt;/div&gt;" style="rounded=0;whiteSpace=wrap;html=1;" parent="1" vertex="1">
          <mxGeometry x="180" y="950" width="120" height="60" as="geometry" />
        </mxCell>
        <mxCell id="e2RUxmq5neUqRyLUQRZd-72" value="&lt;b&gt;007:&lt;/b&gt;&lt;div&gt;Audit whoever started audit and failed&lt;/div&gt;" style="rounded=0;whiteSpace=wrap;html=1;" parent="1" vertex="1">
          <mxGeometry x="440" y="830" width="120" height="50" as="geometry" />
        </mxCell>
        <mxCell id="e2RUxmq5neUqRyLUQRZd-73" value="&lt;b&gt;IRS:&lt;/b&gt;&lt;div&gt;Audit whoever hasn&#39;t been audited&lt;/div&gt;" style="rounded=0;whiteSpace=wrap;html=1;" parent="1" vertex="1">
          <mxGeometry x="239.75" y="820" width="120" height="60" as="geometry" />
        </mxCell>
        <mxCell id="e2RUxmq5neUqRyLUQRZd-74" value="Evil" style="text;html=1;align=center;verticalAlign=middle;whiteSpace=wrap;rounded=0;" parent="1" vertex="1">
          <mxGeometry x="140" y="793" width="60" height="30" as="geometry" />
        </mxCell>
        <mxCell id="e2RUxmq5neUqRyLUQRZd-75" value="Good" style="text;html=1;align=center;verticalAlign=middle;whiteSpace=wrap;rounded=0;" parent="1" vertex="1">
          <mxGeometry x="645" y="793" width="60" height="30" as="geometry" />
        </mxCell>
        <mxCell id="e2RUxmq5neUqRyLUQRZd-76" value="Chaotic" style="text;html=1;align=center;verticalAlign=middle;whiteSpace=wrap;rounded=0;" parent="1" vertex="1">
          <mxGeometry x="100" y="936" width="60" height="30" as="geometry" />
        </mxCell>
        <mxCell id="e2RUxmq5neUqRyLUQRZd-77" value="Lawful" style="text;html=1;align=center;verticalAlign=middle;whiteSpace=wrap;rounded=0;" parent="1" vertex="1">
          <mxGeometry x="674" y="938" width="60" height="30" as="geometry" />
        </mxCell>
        <mxCell id="e2RUxmq5neUqRyLUQRZd-86" style="edgeStyle=orthogonalEdgeStyle;rounded=0;orthogonalLoop=1;jettySize=auto;html=1;exitX=0.5;exitY=1;exitDx=0;exitDy=0;entryX=0.5;entryY=0;entryDx=0;entryDy=0;" parent="1" source="e2RUxmq5neUqRyLUQRZd-78" target="e2RUxmq5neUqRyLUQRZd-85" edge="1">
          <mxGeometry relative="1" as="geometry" />
        </mxCell>
        <mxCell id="e2RUxmq5neUqRyLUQRZd-87" style="edgeStyle=orthogonalEdgeStyle;rounded=0;orthogonalLoop=1;jettySize=auto;html=1;exitX=0;exitY=0.5;exitDx=0;exitDy=0;entryX=0;entryY=0.5;entryDx=0;entryDy=0;" parent="1" source="e2RUxmq5neUqRyLUQRZd-78" target="e2RUxmq5neUqRyLUQRZd-29" edge="1">
          <mxGeometry relative="1" as="geometry">
            <Array as="points">
              <mxPoint x="50" y="1025" />
              <mxPoint x="50" y="190" />
              <mxPoint x="365" y="190" />
            </Array>
          </mxGeometry>
        </mxCell>
        <mxCell id="e2RUxmq5neUqRyLUQRZd-78" value="Round End" style="rounded=0;whiteSpace=wrap;html=1;" parent="1" vertex="1">
          <mxGeometry x="361.75" y="1010" width="120" height="30" as="geometry" />
        </mxCell>
        <mxCell id="e2RUxmq5neUqRyLUQRZd-81" style="edgeStyle=orthogonalEdgeStyle;rounded=0;orthogonalLoop=1;jettySize=auto;html=1;exitX=0.5;exitY=1;exitDx=0;exitDy=0;entryX=0.5;entryY=0;entryDx=0;entryDy=0;" parent="1" source="e2RUxmq5neUqRyLUQRZd-79" target="e2RUxmq5neUqRyLUQRZd-38" edge="1">
          <mxGeometry relative="1" as="geometry" />
        </mxCell>
        <mxCell id="e2RUxmq5neUqRyLUQRZd-79" value="Start of new iteration" style="rounded=0;whiteSpace=wrap;html=1;" parent="1" vertex="1">
          <mxGeometry x="365" y="95" width="120" height="20" as="geometry" />
        </mxCell>
        <mxCell id="e2RUxmq5neUqRyLUQRZd-82" style="edgeStyle=orthogonalEdgeStyle;rounded=0;orthogonalLoop=1;jettySize=auto;html=1;exitX=0.5;exitY=1;exitDx=0;exitDy=0;" parent="1" source="e2RUxmq5neUqRyLUQRZd-78" target="e2RUxmq5neUqRyLUQRZd-78" edge="1">
          <mxGeometry relative="1" as="geometry" />
        </mxCell>
        <mxCell id="e2RUxmq5neUqRyLUQRZd-88" style="edgeStyle=orthogonalEdgeStyle;rounded=0;orthogonalLoop=1;jettySize=auto;html=1;exitX=0;exitY=0.5;exitDx=0;exitDy=0;entryX=0;entryY=0.5;entryDx=0;entryDy=0;" parent="1" source="e2RUxmq5neUqRyLUQRZd-85" target="e2RUxmq5neUqRyLUQRZd-79" edge="1">
          <mxGeometry relative="1" as="geometry">
            <Array as="points">
              <mxPoint x="20" y="1090" />
              <mxPoint x="20" y="105" />
            </Array>
          </mxGeometry>
        </mxCell>
        <mxCell id="e2RUxmq5neUqRyLUQRZd-85" value="After N rounds, threshold hits,&lt;div&gt;Iteration Ends&lt;/div&gt;" style="rounded=0;whiteSpace=wrap;html=1;" parent="1" vertex="1">
          <mxGeometry x="361.75" y="1060" width="120" height="60" as="geometry" />
        </mxCell>
        <mxCell id="rV1uv9Vz4QqJKipd0__I-1" value="&lt;b&gt;Sneak Attack&lt;/b&gt;&lt;br&gt;&lt;div&gt;only take more if you see someone doesn&#39;t have enough&lt;/div&gt;" style="rounded=0;whiteSpace=wrap;html=1;" vertex="1" parent="1">
          <mxGeometry x="205.5" y="686" width="120" height="60" as="geometry" />
        </mxCell>
      </root>
    </mxGraphModel>
  </diagram>
</mxfile>
